# xmcd CD database file
#
# Track frame offsets:
#	150
#	17905
#	35847
#	55650
#	75160
#	96610
#	113055
#	138647
#	159160
#	176687
#	197302
#
# Disc length: 2852 seconds
#
# Revision: 4
# Processed by: cddbd v1.5.2PL0 Copyright (c) Steve Scherf et al.
# Submitted via: CDex 1.70beta3
#
DISCID=870b220b
DTITLE=姫神 - 時を紡いで -姫神TVセレクション-
DYEAR=1997
DGENRE=New Age
TTITLE0=時空の花園
TTITLE1=見上げれば、花びら (Instrumental)
TTITLE2=白鳥招来
TTITLE3=蒼月、中天にありて
TTITLE4=風の祈り
TTITLE5=春萌え
TTITLE6=風の旅
TTITLE7=テーマ 〜時をみつめて〜
TTITLE8=白鳥伝説
TTITLE9=海道をゆく (Part1)
TTITLE10=ムツゴロウとゆかいな仲間たちのテーマ
EXTD=YEAR: 1997
EXTT0=
EXTT1=
EXTT2=
EXTT3=
EXTT4=
EXTT5=
EXTT6=
EXTT7=
EXTT8=
EXTT9=
EXTT10=
PLAYORDER=
